<svg id="mail" xmlns="http://www.w3.org/2000/svg" width="83.656" height="83.662" viewBox="0 0 83.656 83.662">
  <g id="_015---Email" data-name="015---Email" transform="translate(0 0)">
    <path id="Shape" d="M36.538,44.075a30.83,30.83,0,0,1-9.208-1.452,13.928,13.928,0,0,1-9.252-10.545c-1.05-5.056.863-10.4,5.248-14.668q.706-.687,1.466-1.317A17.771,17.771,0,0,1,40.972,12.6a13.547,13.547,0,0,1,9.421,12.46,12.836,12.836,0,0,1-3,9.071,7.052,7.052,0,0,1-6.9,2.533,3.983,3.983,0,0,1-2.561-1.778,3.785,3.785,0,0,1-.368-2.942c1.219-4.609,2.459-11.613,2.471-11.684a1.395,1.395,0,0,1,2.747.485c-.052.291-1.272,7.19-2.522,11.912a1.006,1.006,0,0,0,.062.793,1.241,1.241,0,0,0,.809.5A4.33,4.33,0,0,0,45.3,32.3,10.037,10.037,0,0,0,47.61,25.2a10.785,10.785,0,0,0-7.467-9.941,14.921,14.921,0,0,0-13.572,2.977c-.448.372-.884.761-1.3,1.168-2.168,2.108-5.629,6.483-4.462,12.1a11.29,11.29,0,0,0,7.369,8.456c6.539,2.086,15.935,2.337,20.886-3.819a1.394,1.394,0,0,1,2.173,1.747c-3.661,4.553-9.232,6.181-14.7,6.181Z" transform="translate(7.016 3.322)" fill="#c1292e"/>
    <path id="Shape-2" data-name="Shape" d="M29.647,34.87a6.411,6.411,0,0,1-4.07-1.368c-2.676-2.142-2.75-5.862-2-8.4a12.774,12.774,0,0,1,1.012-2.433,11.431,11.431,0,0,1,4.789-4.97,6.593,6.593,0,0,1,7.757,1.249,10.435,10.435,0,0,1,2.222,3.829,1.394,1.394,0,0,1-2.627.935,7.778,7.778,0,0,0-1.612-2.838,3.775,3.775,0,0,0-4.509-.673,8.74,8.74,0,0,0-3.576,3.81,9.984,9.984,0,0,0-.786,1.89c-.542,1.833-.423,4.225,1.072,5.422,1.634,1.313,4.392.758,5.943-.581a15.549,15.549,0,0,0,2.947-3.585,1.394,1.394,0,1,1,2.369,1.47,18.3,18.3,0,0,1-3.488,4.221,8.566,8.566,0,0,1-5.445,2.019Z" transform="translate(9.134 5.298)" fill="#c1292e"/>
    <path id="Shape-3" data-name="Shape" d="M79.473,77.165H4.183A4.187,4.187,0,0,1,0,72.982V21.395a1.394,1.394,0,0,1,2.285-1.072L36.5,48.755a8.372,8.372,0,0,0,10.665,0L81.369,20.322a1.394,1.394,0,0,1,2.287,1.072V72.982a4.187,4.187,0,0,1-4.183,4.183ZM2.789,24.366V72.982a1.4,1.4,0,0,0,1.394,1.394h75.29a1.4,1.4,0,0,0,1.394-1.394V24.366L48.942,50.9a11.167,11.167,0,0,1-14.225,0Z" transform="translate(0 6.497)" fill="#c1292e"/>
    <path id="Shape-4" data-name="Shape" d="M1.4,25.3A1.394,1.394,0,0,1,.588,22.77l12.548-8.9a1.394,1.394,0,0,1,1.612,2.275L2.2,25.045a1.386,1.386,0,0,1-.8.257Z" transform="translate(0 3.984)" fill="#c1292e"/>
    <path id="Shape-5" data-name="Shape" d="M62.938,25.3a1.386,1.386,0,0,1-.8-.257l-12.548-8.9A1.394,1.394,0,0,1,51.2,13.874l12.548,8.9a1.394,1.394,0,0,1-.807,2.532Z" transform="translate(19.322 3.984)" fill="#c1292e"/>
    <path id="Shape-6" data-name="Shape" d="M46.919,10.762a1.39,1.39,0,0,1-.805-.257L39.449,5.778A8.38,8.38,0,0,0,28.71,5.714L21.961,10.5A1.395,1.395,0,0,1,20.348,8.23L27.013,3.5a11.1,11.1,0,0,1,14.133.064l6.581,4.662a1.394,1.394,0,0,1-.808,2.532Z" transform="translate(7.791 -0.996)" fill="#c1292e"/>
    <path id="Shape-7" data-name="Shape" d="M2.045,68.727a1.394,1.394,0,0,1-.892-2.467L32.969,39.825a1.394,1.394,0,1,1,1.782,2.144L2.935,68.4a1.39,1.39,0,0,1-.89.322Z" transform="translate(0.256 14.182)" fill="#c1292e"/>
    <path id="Shape-8" data-name="Shape" d="M67.743,68.727a1.386,1.386,0,0,1-.889-.322L35.037,41.969a1.394,1.394,0,1,1,1.782-2.144L68.635,66.26a1.394,1.394,0,0,1-.892,2.467Z" transform="translate(13.61 14.182)" fill="#c1292e"/>
    <path id="Shape-9" data-name="Shape" d="M66.165,38.738a1.394,1.394,0,0,1-1.394-1.394V8.8c0,.029-.06-.01-.153-.011H11.942a.225.225,0,0,0-.167.06l.014,28.495a1.394,1.394,0,0,1-2.789,0V8.789A2.871,2.871,0,0,1,11.942,6H64.617a2.871,2.871,0,0,1,2.942,2.789V37.343A1.394,1.394,0,0,1,66.165,38.738Z" transform="translate(3.548 0.977)" fill="#c1292e"/>
  </g>
</svg>
