<svg id="phone-call" xmlns="http://www.w3.org/2000/svg" width="77.567" height="77.68" viewBox="0 0 77.567 77.68">
  <g id="Group_131" data-name="Group 131" transform="translate(0 0)">
    <path id="Path_67" data-name="Path 67" d="M61.68,71.033a7.64,7.64,0,0,0-5.541-2.541,7.9,7.9,0,0,0-5.607,2.525l-5.181,5.164c-.426-.23-.853-.443-1.262-.656-.59-.3-1.148-.574-1.623-.869a56.309,56.309,0,0,1-13.493-12.3,33.219,33.219,0,0,1-4.427-6.984c1.344-1.23,2.59-2.508,3.8-3.738.459-.459.918-.935,1.377-1.394,3.443-3.443,3.443-7.9,0-11.345L25.25,34.423c-.508-.508-1.033-1.033-1.525-1.558-.984-1.016-2.017-2.066-3.082-3.049a7.761,7.761,0,0,0-5.492-2.41,8.031,8.031,0,0,0-5.574,2.41l-.033.033L3.97,35.472A12,12,0,0,0,.412,43.1a28.741,28.741,0,0,0,2.1,12.165,70.592,70.592,0,0,0,12.542,20.92A77.153,77.153,0,0,0,40.744,96.3c3.771,1.787,8.8,3.9,14.428,4.263.344.016.7.033,1.033.033a12.354,12.354,0,0,0,9.46-4.066c.016-.033.049-.049.066-.082A37.273,37.273,0,0,1,68.6,93.478c.7-.672,1.426-1.377,2.131-2.115a8.179,8.179,0,0,0,2.476-5.673,7.879,7.879,0,0,0-2.525-5.623ZM67.549,88.3c-.016,0-.016.016,0,0-.639.689-1.3,1.312-2,2a43.115,43.115,0,0,0-3.164,3.279,7.9,7.9,0,0,1-6.165,2.607c-.246,0-.508,0-.754-.016-4.869-.312-9.394-2.213-12.788-3.836a72.828,72.828,0,0,1-24.2-18.953A66.56,66.56,0,0,1,6.675,53.72,23.409,23.409,0,0,1,4.839,43.457,7.526,7.526,0,0,1,7.1,38.587L12.692,33a3.727,3.727,0,0,1,2.492-1.164,3.507,3.507,0,0,1,2.394,1.148l.049.049c1,.935,1.951,1.9,2.951,2.935.508.525,1.033,1.049,1.558,1.59l4.476,4.476c1.738,1.738,1.738,3.345,0,5.082-.475.475-.935.951-1.41,1.41-1.377,1.41-2.689,2.722-4.115,4-.033.033-.066.049-.082.082a3.344,3.344,0,0,0-.853,3.722l.049.148a35.934,35.934,0,0,0,5.3,8.64l.016.016A60.175,60.175,0,0,0,40.071,78.378a22.386,22.386,0,0,0,2.017,1.1c.59.3,1.148.574,1.623.869.066.033.131.082.2.115a3.554,3.554,0,0,0,1.623.41,3.505,3.505,0,0,0,2.492-1.131l5.607-5.607a3.709,3.709,0,0,1,2.476-1.23,3.339,3.339,0,0,1,2.361,1.2l.033.033,9.034,9.034C69.222,84.838,69.222,86.559,67.549,88.3Z" transform="translate(-0.344 -22.913)" fill="#c1292e"/>
    <path id="Path_68" data-name="Path 68" d="M246.766,90.316A21.1,21.1,0,0,1,263.948,107.5a2.2,2.2,0,0,0,2.181,1.836,2.928,2.928,0,0,0,.377-.033,2.215,2.215,0,0,0,1.82-2.558,25.513,25.513,0,0,0-20.789-20.789,2.225,2.225,0,0,0-2.558,1.8A2.189,2.189,0,0,0,246.766,90.316Z" transform="translate(-204.842 -71.838)" fill="#c1292e"/>
    <path id="Path_69" data-name="Path 69" d="M285.579,34.267A42.011,42.011,0,0,0,251.346.034a2.21,2.21,0,1,0-.721,4.361,37.525,37.525,0,0,1,30.593,30.593,2.2,2.2,0,0,0,2.181,1.836,2.927,2.927,0,0,0,.377-.033A2.172,2.172,0,0,0,285.579,34.267Z" transform="translate(-208.045 0)" fill="#c1292e"/>
  </g>
</svg>
