<svg id="svgexport-6" xmlns="http://www.w3.org/2000/svg" width="137.611" height="153.126" viewBox="0 0 137.611 153.126">
  <path id="Path_530" data-name="Path 530" d="M337.044,27.12h-47.6a1.529,1.529,0,0,0-1.526,1.524v18.94h.4a1.53,1.53,0,0,1,1.526,1.524v8.766h3.02a1.529,1.529,0,0,1,1.525,1.525V66.96h3.67a1.529,1.529,0,0,1,1.526,1.524v95.372h4.481a1.529,1.529,0,0,1,1.526,1.524v4.511h31.457a1.53,1.53,0,0,0,1.526-1.525V28.645A1.53,1.53,0,0,0,337.044,27.12Z" transform="translate(-209.566 -19.009)" fill="#fb8276"/>
  <path id="Path_531" data-name="Path 531" d="M288.315,47.586a1.53,1.53,0,0,1,1.526,1.524v8.766h3.02a1.529,1.529,0,0,1,1.525,1.525v7.561h1.776V28.645a1.529,1.529,0,0,1,1.526-1.524h-8.244a1.529,1.529,0,0,0-1.526,1.524v18.94Z" transform="translate(-209.567 -19.01)" opacity="0.1"/>
  <g id="Group_16228" data-name="Group 16228" transform="translate(82.671 14.181)">
    <path id="Path_532" data-name="Path 532" d="M412.738,51.9h5.187a2.243,2.243,0,0,0,0-4.486h-5.187a2.243,2.243,0,0,0,0,4.486Z" transform="translate(-378.155 -47.417)" fill="#ef5050"/>
    <path id="Path_533" data-name="Path 533" d="M309.791,47.417H304.6a2.243,2.243,0,1,0,0,4.486h5.187a2.243,2.243,0,1,0,0-4.486Z" transform="translate(-302.361 -47.417)" fill="#ef5050"/>
    <path id="Path_534" data-name="Path 534" d="M417.925,70.864h-5.187a2.243,2.243,0,0,0,0,4.486h5.187a2.243,2.243,0,0,0,0-4.486Z" transform="translate(-378.155 -63.852)" fill="#ef5050"/>
    <path id="Path_535" data-name="Path 535" d="M309.791,70.864H304.6a2.243,2.243,0,1,0,0,4.486h5.187a2.243,2.243,0,1,0,0-4.486Z" transform="translate(-302.361 -63.852)" fill="#ef5050"/>
    <path id="Path_536" data-name="Path 536" d="M417.925,94.312h-5.187a2.243,2.243,0,0,0,0,4.486h5.187a2.243,2.243,0,0,0,0-4.486Z" transform="translate(-378.155 -80.287)" fill="#ef5050"/>
    <path id="Path_537" data-name="Path 537" d="M309.791,94.312H304.6a2.243,2.243,0,1,0,0,4.486h5.187a2.243,2.243,0,1,0,0-4.486Z" transform="translate(-302.361 -80.287)" fill="#ef5050"/>
    <path id="Path_538" data-name="Path 538" d="M417.925,117.76h-5.187a2.243,2.243,0,0,0,0,4.486h5.187a2.243,2.243,0,0,0,0-4.486Z" transform="translate(-378.155 -96.722)" fill="#ef5050"/>
    <path id="Path_539" data-name="Path 539" d="M309.791,117.76H304.6a2.243,2.243,0,1,0,0,4.486h5.187a2.243,2.243,0,1,0,0-4.486Z" transform="translate(-302.361 -96.722)" fill="#ef5050"/>
    <path id="Path_540" data-name="Path 540" d="M417.925,141.207h-5.187a2.243,2.243,0,0,0,0,4.486h5.187a2.243,2.243,0,0,0,0-4.486Z" transform="translate(-378.155 -113.157)" fill="#ef5050"/>
    <path id="Path_541" data-name="Path 541" d="M309.791,141.207H304.6a2.243,2.243,0,1,0,0,4.486h5.187a2.243,2.243,0,1,0,0-4.486Z" transform="translate(-302.361 -113.157)" fill="#ef5050"/>
    <path id="Path_542" data-name="Path 542" d="M417.925,164.655h-5.187a2.243,2.243,0,0,0,0,4.486h5.187a2.243,2.243,0,0,0,0-4.486Z" transform="translate(-378.155 -129.592)" fill="#ef5050"/>
    <path id="Path_543" data-name="Path 543" d="M326.86,164.887v4.254h.086a2.243,2.243,0,0,0,0-4.486h-.11A1.481,1.481,0,0,1,326.86,164.887Z" transform="translate(-319.516 -129.592)" fill="#ef5050"/>
    <path id="Path_544" data-name="Path 544" d="M417.925,188.1h-5.187a2.243,2.243,0,0,0,0,4.486h5.187a2.243,2.243,0,0,0,0-4.486Z" transform="translate(-378.155 -146.027)" fill="#ef5050"/>
    <path id="Path_545" data-name="Path 545" d="M326.915,192.588H327a2.243,2.243,0,0,0,0-4.486h-.086Z" transform="translate(-319.572 -146.027)" fill="#ef5050"/>
    <path id="Path_546" data-name="Path 546" d="M417.925,211.55h-5.187a2.243,2.243,0,0,0,0,4.486h5.187a2.243,2.243,0,0,0,0-4.486Z" transform="translate(-378.155 -162.462)" fill="#ef5050"/>
    <path id="Path_547" data-name="Path 547" d="M326.915,216.036H327a2.243,2.243,0,0,0,0-4.486h-.086Z" transform="translate(-319.572 -162.462)" fill="#ef5050"/>
    <path id="Path_548" data-name="Path 548" d="M417.925,235h-5.187a2.243,2.243,0,0,0,0,4.486h5.187a2.243,2.243,0,0,0,0-4.486Z" transform="translate(-378.155 -178.897)" fill="#ef5050"/>
    <path id="Path_549" data-name="Path 549" d="M326.915,239.484H327A2.243,2.243,0,0,0,327,235h-.086Z" transform="translate(-319.572 -178.897)" fill="#ef5050"/>
    <path id="Path_550" data-name="Path 550" d="M417.925,258.446h-5.187a2.243,2.243,0,0,0,0,4.486h5.187a2.243,2.243,0,0,0,0-4.486Z" transform="translate(-378.155 -195.333)" fill="#ef5050"/>
    <path id="Path_551" data-name="Path 551" d="M326.915,262.932H327a2.243,2.243,0,0,0,0-4.486h-.086Z" transform="translate(-319.572 -195.333)" fill="#ef5050"/>
    <path id="Path_552" data-name="Path 552" d="M417.925,281.893h-5.187a2.243,2.243,0,1,0,0,4.486h5.187a2.243,2.243,0,1,0,0-4.486Z" transform="translate(-378.155 -211.767)" fill="#ef5050"/>
    <path id="Path_553" data-name="Path 553" d="M326.915,286.379H327a2.243,2.243,0,0,0,0-4.486h-.086Z" transform="translate(-319.572 -211.767)" fill="#ef5050"/>
    <path id="Path_554" data-name="Path 554" d="M417.925,305.341h-5.187a2.243,2.243,0,0,0,0,4.486h5.187a2.243,2.243,0,0,0,0-4.486Z" transform="translate(-378.155 -228.203)" fill="#ef5050"/>
    <path id="Path_555" data-name="Path 555" d="M326.915,309.827H327a2.243,2.243,0,0,0,0-4.486h-.086Z" transform="translate(-319.572 -228.203)" fill="#ef5050"/>
    <path id="Path_556" data-name="Path 556" d="M417.925,328.788h-5.187a2.243,2.243,0,0,0,0,4.486h5.187a2.243,2.243,0,0,0,0-4.486Z" transform="translate(-378.155 -244.637)" fill="#ef5050"/>
    <path id="Path_557" data-name="Path 557" d="M326.915,333.274H327a2.243,2.243,0,0,0,0-4.486h-.086Z" transform="translate(-319.572 -244.637)" fill="#ef5050"/>
    <path id="Path_558" data-name="Path 558" d="M417.925,352.236h-5.187a2.243,2.243,0,0,0,0,4.486h5.187a2.243,2.243,0,0,0,0-4.486Z" transform="translate(-378.155 -261.073)" fill="#ef5050"/>
    <path id="Path_559" data-name="Path 559" d="M326.915,356.722H327a2.243,2.243,0,0,0,0-4.486h-.086Z" transform="translate(-319.572 -261.073)" fill="#ef5050"/>
    <path id="Path_560" data-name="Path 560" d="M417.925,375.683h-5.187a2.243,2.243,0,0,0,0,4.486h5.187a2.243,2.243,0,0,0,0-4.486Z" transform="translate(-378.155 -277.507)" fill="#ef5050"/>
    <path id="Path_561" data-name="Path 561" d="M326.915,380.169H327a2.243,2.243,0,0,0,0-4.486h-.086Z" transform="translate(-319.572 -277.507)" fill="#ef5050"/>
    <path id="Path_562" data-name="Path 562" d="M417.925,399.131h-5.187a2.243,2.243,0,1,0,0,4.486h5.187a2.243,2.243,0,1,0,0-4.486Z" transform="translate(-378.155 -293.942)" fill="#ef5050"/>
    <path id="Path_563" data-name="Path 563" d="M326.915,403.617H327a2.243,2.243,0,1,0,0-4.486h-.086Z" transform="translate(-319.572 -293.942)" fill="#ef5050"/>
    <path id="Path_564" data-name="Path 564" d="M417.925,422.579h-5.187a2.243,2.243,0,0,0,0,4.486h5.187a2.243,2.243,0,0,0,0-4.486Z" transform="translate(-378.155 -310.378)" fill="#ef5050"/>
    <path id="Path_565" data-name="Path 565" d="M326.915,427.065H327a2.243,2.243,0,0,0,0-4.486h-.086Z" transform="translate(-319.572 -310.378)" fill="#ef5050"/>
    <path id="Path_566" data-name="Path 566" d="M417.925,446.027h-5.187a2.243,2.243,0,0,0,0,4.486h5.187a2.243,2.243,0,0,0,0-4.486Z" transform="translate(-378.155 -326.813)" fill="#ef5050"/>
    <path id="Path_567" data-name="Path 567" d="M326.915,450.513H327a2.243,2.243,0,0,0,0-4.486h-.086Z" transform="translate(-319.572 -326.813)" fill="#ef5050"/>
    <path id="Path_568" data-name="Path 568" d="M358.917,47.417H346.378a2.243,2.243,0,0,0,0,4.486h12.539a2.243,2.243,0,1,0,0-4.486Z" transform="translate(-331.642 -47.417)" fill="#ef5050"/>
    <path id="Path_569" data-name="Path 569" d="M358.917,70.864H346.378a2.243,2.243,0,0,0,0,4.486h12.539a2.243,2.243,0,1,0,0-4.486Z" transform="translate(-331.642 -63.852)" fill="#ef5050"/>
    <path id="Path_570" data-name="Path 570" d="M358.917,94.312H346.378a2.243,2.243,0,0,0,0,4.486h12.539a2.243,2.243,0,1,0,0-4.486Z" transform="translate(-331.642 -80.287)" fill="#ef5050"/>
    <path id="Path_571" data-name="Path 571" d="M358.917,117.76H346.378a2.243,2.243,0,0,0,0,4.486h12.539a2.243,2.243,0,1,0,0-4.486Z" transform="translate(-331.642 -96.722)" fill="#ef5050"/>
    <path id="Path_572" data-name="Path 572" d="M358.917,141.207H346.378a2.243,2.243,0,0,0,0,4.486h12.539a2.243,2.243,0,1,0,0-4.486Z" transform="translate(-331.642 -113.157)" fill="#ef5050"/>
    <path id="Path_573" data-name="Path 573" d="M358.917,164.655H346.378a2.243,2.243,0,0,0,0,4.486h12.539a2.243,2.243,0,1,0,0-4.486Z" transform="translate(-331.642 -129.592)" fill="#ef5050"/>
    <path id="Path_574" data-name="Path 574" d="M358.917,188.1H346.378a2.243,2.243,0,0,0,0,4.486h12.539a2.243,2.243,0,1,0,0-4.486Z" transform="translate(-331.642 -146.027)" fill="#ef5050"/>
    <path id="Path_575" data-name="Path 575" d="M358.917,211.55H346.378a2.243,2.243,0,0,0,0,4.486h12.539a2.243,2.243,0,1,0,0-4.486Z" transform="translate(-331.642 -162.462)" fill="#ef5050"/>
    <path id="Path_576" data-name="Path 576" d="M358.917,235H346.378a2.243,2.243,0,0,0,0,4.486h12.539a2.243,2.243,0,1,0,0-4.486Z" transform="translate(-331.642 -178.897)" fill="#ef5050"/>
    <path id="Path_577" data-name="Path 577" d="M358.917,258.446H346.378a2.243,2.243,0,0,0,0,4.486h12.539a2.243,2.243,0,1,0,0-4.486Z" transform="translate(-331.642 -195.333)" fill="#ef5050"/>
    <path id="Path_578" data-name="Path 578" d="M358.917,281.893H346.378a2.243,2.243,0,1,0,0,4.486h12.539a2.243,2.243,0,1,0,0-4.486Z" transform="translate(-331.642 -211.767)" fill="#ef5050"/>
    <path id="Path_579" data-name="Path 579" d="M358.917,305.341H346.378a2.243,2.243,0,0,0,0,4.486h12.539a2.243,2.243,0,1,0,0-4.486Z" transform="translate(-331.642 -228.203)" fill="#ef5050"/>
    <path id="Path_580" data-name="Path 580" d="M358.917,328.788H346.378a2.243,2.243,0,0,0,0,4.486h12.539a2.243,2.243,0,1,0,0-4.486Z" transform="translate(-331.642 -244.637)" fill="#ef5050"/>
    <path id="Path_581" data-name="Path 581" d="M358.917,352.236H346.378a2.243,2.243,0,0,0,0,4.486h12.539a2.243,2.243,0,1,0,0-4.486Z" transform="translate(-331.642 -261.073)" fill="#ef5050"/>
    <path id="Path_582" data-name="Path 582" d="M358.917,375.683H346.378a2.243,2.243,0,0,0,0,4.486h12.539a2.243,2.243,0,1,0,0-4.486Z" transform="translate(-331.642 -277.507)" fill="#ef5050"/>
    <path id="Path_583" data-name="Path 583" d="M358.917,399.131H346.378a2.243,2.243,0,1,0,0,4.486h12.539a2.243,2.243,0,1,0,0-4.486Z" transform="translate(-331.642 -293.942)" fill="#ef5050"/>
    <path id="Path_584" data-name="Path 584" d="M358.917,422.579H346.378a2.243,2.243,0,0,0,0,4.486h12.539a2.243,2.243,0,0,0,0-4.486Z" transform="translate(-331.642 -310.378)" fill="#ef5050"/>
    <path id="Path_585" data-name="Path 585" d="M358.917,446.027H346.378a2.243,2.243,0,0,0,0,4.486h12.539a2.243,2.243,0,0,0,0-4.486Z" transform="translate(-331.642 -326.813)" fill="#ef5050"/>
  </g>
  <path id="Path_586" data-name="Path 586" d="M141.169,58.428V49.476a1.529,1.529,0,0,1,1.526-1.524h3.67V40.391a1.529,1.529,0,0,1,1.526-1.525h3.02V30.1a1.525,1.525,0,0,1,1.426-1.514V.875c0-.839-.558-1.125-1.24-.636L123.7,19.877a3.346,3.346,0,0,0-1.239,2.413V58.428Z" transform="translate(-93.595 0)" fill="#d5e962"/>
  <path id="Path_587" data-name="Path 587" d="M130.393,58.428V24.486a3.346,3.346,0,0,1,1.239-2.413l20.7-14.842V.875c0-.839-.558-1.125-1.24-.636L123.7,19.877a3.346,3.346,0,0,0-1.239,2.413V58.428Z" transform="translate(-93.595 0)" opacity="0.1"/>
  <g id="Group_16229" data-name="Group 16229" transform="translate(33.307 25.767)">
    <path id="Path_588" data-name="Path 588" d="M139.549,90.642H158.77a2.243,2.243,0,0,0,0-4.486H139.549a2.243,2.243,0,0,0,0,4.486Z" transform="translate(-137.306 -86.156)" fill="#89c947"/>
    <path id="Path_589" data-name="Path 589" d="M158.77,108.075H139.549a2.243,2.243,0,0,0,0,4.486H158.77a2.243,2.243,0,0,0,0-4.486Z" transform="translate(-137.306 -101.52)" fill="#89c947"/>
    <path id="Path_590" data-name="Path 590" d="M139.549,134.479h17.219v-2.973a1.525,1.525,0,0,1,1.41-1.513H139.549a2.243,2.243,0,0,0,0,4.486Z" transform="translate(-137.306 -116.882)" fill="#89c947"/>
    <path id="Path_591" data-name="Path 591" d="M139.549,156.4h12.023v-.443a1.529,1.529,0,0,1,1.526-1.524h3.67v-2.518H139.549a2.243,2.243,0,1,0,0,4.486Z" transform="translate(-137.306 -132.246)" fill="#89c947"/>
    <path id="Path_592" data-name="Path 592" d="M139.549,178.316h12.023V173.83H139.549a2.243,2.243,0,0,0,0,4.486Z" transform="translate(-137.306 -147.609)" fill="#89c947"/>
  </g>
  <path id="Path_593" data-name="Path 593" d="M98.438,282.439a1.53,1.53,0,0,1-1.526,1.525H54.506a1.529,1.529,0,0,1-1.525-1.525v-91.05a1.529,1.529,0,0,1,1.525-1.524H96.913a1.53,1.53,0,0,1,1.526,1.524v91.05Z" transform="translate(-44.893 -133.081)" fill="#f7931e"/>
  <path id="Path_594" data-name="Path 594" d="M59.089,282.439v-91.05a1.529,1.529,0,0,1,1.526-1.524H54.506a1.529,1.529,0,0,0-1.525,1.524v91.05a1.529,1.529,0,0,0,1.525,1.525h6.108A1.53,1.53,0,0,1,59.089,282.439Z" transform="translate(-44.893 -133.081)" opacity="0.1"/>
  <g id="Group_16230" data-name="Group 16230" transform="translate(14.611 65.897)">
    <path id="Path_595" data-name="Path 595" d="M77.036,288.746a2.243,2.243,0,0,1-2.243-2.243V222.58a2.243,2.243,0,0,1,4.486,0V286.5A2.243,2.243,0,0,1,77.036,288.746Z" transform="translate(-74.793 -220.337)" fill="#ffc502"/>
    <path id="Path_596" data-name="Path 596" d="M100.921,288.746a2.243,2.243,0,0,1-2.243-2.243V222.58a2.243,2.243,0,0,1,4.486,0V286.5A2.243,2.243,0,0,1,100.921,288.746Z" transform="translate(-91.535 -220.337)" fill="#ffc502"/>
    <path id="Path_597" data-name="Path 597" d="M124.806,288.746a2.243,2.243,0,0,1-2.243-2.243V222.58a2.243,2.243,0,0,1,4.486,0V286.5A2.243,2.243,0,0,1,124.806,288.746Z" transform="translate(-108.276 -220.337)" fill="#ffc502"/>
    <path id="Path_598" data-name="Path 598" d="M148.69,288.746a2.243,2.243,0,0,1-2.243-2.243V222.58a2.243,2.243,0,0,1,4.486,0V286.5A2.243,2.243,0,0,1,148.69,288.746Z" transform="translate(-125.017 -220.337)" fill="#ffc502"/>
  </g>
  <path id="Path_599" data-name="Path 599" d="M252.986,35.619V12.1a2.243,2.243,0,0,0-4.486,0v23.52Z" transform="translate(-181.938 -6.908)" fill="#c5ccd3"/>
  <path id="Path_600" data-name="Path 600" d="M238.548,102V91.572a1.529,1.529,0,0,0-1.526-1.524H214.1a1.53,1.53,0,0,0-1.526,1.524V102Z" transform="translate(-156.756 -63.117)" fill="#e6e9ed"/>
  <path id="Path_601" data-name="Path 601" d="M218.849,102V91.572a1.529,1.529,0,0,1,1.526-1.524H214.1a1.53,1.53,0,0,0-1.526,1.524V102Z" transform="translate(-156.756 -63.117)" opacity="0.1"/>
  <path id="Path_602" data-name="Path 602" d="M232.441,135.035v-9.057a1.53,1.53,0,0,0-1.526-1.525H198.9a1.529,1.529,0,0,0-1.526,1.525v9.057Z" transform="translate(-146.103 -87.232)" fill="#c5ccd3"/>
  <path id="Path_603" data-name="Path 603" d="M206.976,135.035v-9.057a1.529,1.529,0,0,1,1.525-1.525h-9.6a1.529,1.529,0,0,0-1.526,1.525v9.057Z" transform="translate(-146.103 -87.232)" opacity="0.1"/>
  <path id="Path_604" data-name="Path 604" d="M225.46,253.249a1.529,1.529,0,0,1-1.526,1.524H181.529A1.529,1.529,0,0,1,180,253.249V156.357a1.529,1.529,0,0,1,1.526-1.524h42.406a1.529,1.529,0,0,1,1.526,1.524v96.891Z" transform="translate(-133.926 -108.526)" fill="#e6e9ed"/>
  <path id="Path_605" data-name="Path 605" d="M186.259,253.249V156.357a1.529,1.529,0,0,1,1.526-1.524H181.53A1.529,1.529,0,0,0,180,156.357v96.891a1.529,1.529,0,0,0,1.526,1.524h6.255A1.529,1.529,0,0,1,186.259,253.249Z" transform="translate(-133.927 -108.526)" opacity="0.1"/>
  <ellipse id="Ellipse_22" data-name="Ellipse 22" cx="11.813" cy="11.806" rx="11.813" ry="11.806" transform="translate(3.254 116.04)" fill="#89c947"/>
  <path id="Path_606" data-name="Path 606" d="M71.065,460.5a11.871,11.871,0,0,1-2.243-.215v11.879h4.486V460.28A11.873,11.873,0,0,1,71.065,460.5Z" transform="translate(-55.997 -322.622)" fill="#775436"/>
  <path id="Path_607" data-name="Path 607" d="M43.825,399.8a11.811,11.811,0,0,1,8.312-11.278,11.806,11.806,0,1,0,0,22.556A11.812,11.812,0,0,1,43.825,399.8Z" transform="translate(-33.567 -271.955)" opacity="0.1"/>
  <path id="Path_608" data-name="Path 608" d="M428.792,460.5a11.875,11.875,0,0,1-2.243-.215v11.879h4.486V460.28A11.874,11.874,0,0,1,428.792,460.5Z" transform="translate(-306.737 -322.622)" fill="#775436"/>
  <ellipse id="Ellipse_23" data-name="Ellipse 23" cx="11.813" cy="11.806" rx="11.813" ry="11.806" transform="translate(110.242 116.04)" fill="#89c947"/>
  <path id="Path_609" data-name="Path 609" d="M401.668,399.8a11.812,11.812,0,0,1,8.254-11.26,11.806,11.806,0,1,0,0,22.518A11.81,11.81,0,0,1,401.668,399.8Z" transform="translate(-284.308 -271.954)" opacity="0.1"/>
  <g id="Group_16231" data-name="Group 16231" transform="translate(50.328 51.174)">
    <path id="Path_610" data-name="Path 610" d="M196.46,409.389a2.243,2.243,0,0,0-2.243,2.243V414.8a2.243,2.243,0,0,0,4.486,0v-3.164A2.243,2.243,0,0,0,196.46,409.389Z" transform="translate(-194.217 -338.125)" fill="#9ea7af"/>
    <path id="Path_611" data-name="Path 611" d="M305.026,409.389a2.243,2.243,0,0,0-2.243,2.243V414.8a2.243,2.243,0,0,0,4.486,0v-3.164A2.243,2.243,0,0,0,305.026,409.389Z" transform="translate(-270.314 -338.125)" fill="#9ea7af"/>
    <path id="Path_612" data-name="Path 612" d="M196.46,171.107a2.243,2.243,0,0,0-2.243,2.243v3.164a2.243,2.243,0,0,0,4.486,0V173.35A2.243,2.243,0,0,0,196.46,171.107Z" transform="translate(-194.217 -171.107)" fill="#9ea7af"/>
    <path id="Path_613" data-name="Path 613" d="M218.173,171.107a2.243,2.243,0,0,0-2.243,2.243v3.164a2.243,2.243,0,1,0,4.486,0V173.35A2.243,2.243,0,0,0,218.173,171.107Z" transform="translate(-209.436 -171.107)" fill="#9ea7af"/>
    <path id="Path_614" data-name="Path 614" d="M239.886,171.107a2.243,2.243,0,0,0-2.243,2.243v3.164a2.243,2.243,0,1,0,4.486,0V173.35A2.243,2.243,0,0,0,239.886,171.107Z" transform="translate(-224.655 -171.107)" fill="#9ea7af"/>
    <path id="Path_615" data-name="Path 615" d="M261.6,171.107a2.243,2.243,0,0,0-2.243,2.243v3.164a2.243,2.243,0,1,0,4.486,0V173.35A2.243,2.243,0,0,0,261.6,171.107Z" transform="translate(-239.875 -171.107)" fill="#9ea7af"/>
    <path id="Path_616" data-name="Path 616" d="M283.313,171.107a2.243,2.243,0,0,0-2.243,2.243v3.164a2.243,2.243,0,1,0,4.486,0V173.35A2.243,2.243,0,0,0,283.313,171.107Z" transform="translate(-255.094 -171.107)" fill="#9ea7af"/>
    <path id="Path_617" data-name="Path 617" d="M305.026,171.107a2.243,2.243,0,0,0-2.243,2.243v3.164a2.243,2.243,0,1,0,4.486,0V173.35A2.243,2.243,0,0,0,305.026,171.107Z" transform="translate(-270.314 -171.107)" fill="#9ea7af"/>
    <path id="Path_618" data-name="Path 618" d="M196.46,205.148a2.243,2.243,0,0,0-2.243,2.243v3.164a2.243,2.243,0,0,0,4.486,0v-3.164A2.243,2.243,0,0,0,196.46,205.148Z" transform="translate(-194.217 -194.967)" fill="#9ea7af"/>
    <path id="Path_619" data-name="Path 619" d="M218.173,205.148a2.243,2.243,0,0,0-2.243,2.243v3.164a2.243,2.243,0,1,0,4.486,0v-3.164A2.243,2.243,0,0,0,218.173,205.148Z" transform="translate(-209.436 -194.967)" fill="#9ea7af"/>
    <path id="Path_620" data-name="Path 620" d="M239.886,205.148a2.243,2.243,0,0,0-2.243,2.243v3.164a2.243,2.243,0,1,0,4.486,0v-3.164A2.243,2.243,0,0,0,239.886,205.148Z" transform="translate(-224.655 -194.967)" fill="#9ea7af"/>
    <path id="Path_621" data-name="Path 621" d="M261.6,205.148a2.243,2.243,0,0,0-2.243,2.243v3.164a2.243,2.243,0,1,0,4.486,0v-3.164A2.243,2.243,0,0,0,261.6,205.148Z" transform="translate(-239.875 -194.967)" fill="#9ea7af"/>
    <path id="Path_622" data-name="Path 622" d="M283.313,205.148a2.243,2.243,0,0,0-2.243,2.243v3.164a2.243,2.243,0,1,0,4.486,0v-3.164A2.243,2.243,0,0,0,283.313,205.148Z" transform="translate(-255.094 -194.967)" fill="#9ea7af"/>
    <path id="Path_623" data-name="Path 623" d="M305.026,205.148a2.243,2.243,0,0,0-2.243,2.243v3.164a2.243,2.243,0,1,0,4.486,0v-3.164A2.243,2.243,0,0,0,305.026,205.148Z" transform="translate(-270.314 -194.967)" fill="#9ea7af"/>
    <path id="Path_624" data-name="Path 624" d="M196.46,239.188a2.243,2.243,0,0,0-2.243,2.243v3.164a2.243,2.243,0,1,0,4.486,0v-3.164A2.243,2.243,0,0,0,196.46,239.188Z" transform="translate(-194.217 -218.827)" fill="#9ea7af"/>
    <path id="Path_625" data-name="Path 625" d="M218.173,239.188a2.243,2.243,0,0,0-2.243,2.243v3.164a2.243,2.243,0,1,0,4.486,0v-3.164A2.243,2.243,0,0,0,218.173,239.188Z" transform="translate(-209.436 -218.827)" fill="#9ea7af"/>
    <path id="Path_626" data-name="Path 626" d="M239.886,239.188a2.243,2.243,0,0,0-2.243,2.243v3.164a2.243,2.243,0,1,0,4.486,0v-3.164A2.243,2.243,0,0,0,239.886,239.188Z" transform="translate(-224.655 -218.827)" fill="#9ea7af"/>
    <path id="Path_627" data-name="Path 627" d="M261.6,239.188a2.243,2.243,0,0,0-2.243,2.243v3.164a2.243,2.243,0,1,0,4.486,0v-3.164A2.243,2.243,0,0,0,261.6,239.188Z" transform="translate(-239.875 -218.827)" fill="#9ea7af"/>
    <path id="Path_628" data-name="Path 628" d="M283.313,239.188a2.243,2.243,0,0,0-2.243,2.243v3.164a2.243,2.243,0,1,0,4.486,0v-3.164A2.243,2.243,0,0,0,283.313,239.188Z" transform="translate(-255.094 -218.827)" fill="#9ea7af"/>
    <path id="Path_629" data-name="Path 629" d="M305.026,239.188a2.243,2.243,0,0,0-2.243,2.243v3.164a2.243,2.243,0,1,0,4.486,0v-3.164A2.243,2.243,0,0,0,305.026,239.188Z" transform="translate(-270.314 -218.827)" fill="#9ea7af"/>
    <path id="Path_630" data-name="Path 630" d="M196.46,273.228a2.243,2.243,0,0,0-2.243,2.243v3.164a2.243,2.243,0,1,0,4.486,0v-3.164A2.243,2.243,0,0,0,196.46,273.228Z" transform="translate(-194.217 -242.686)" fill="#9ea7af"/>
    <path id="Path_631" data-name="Path 631" d="M218.173,273.228a2.243,2.243,0,0,0-2.243,2.243v3.164a2.243,2.243,0,1,0,4.486,0v-3.164A2.243,2.243,0,0,0,218.173,273.228Z" transform="translate(-209.436 -242.686)" fill="#9ea7af"/>
    <path id="Path_632" data-name="Path 632" d="M239.886,273.228a2.243,2.243,0,0,0-2.243,2.243v3.164a2.243,2.243,0,1,0,4.486,0v-3.164A2.243,2.243,0,0,0,239.886,273.228Z" transform="translate(-224.655 -242.686)" fill="#9ea7af"/>
    <path id="Path_633" data-name="Path 633" d="M261.6,273.228a2.243,2.243,0,0,0-2.243,2.243v3.164a2.243,2.243,0,1,0,4.486,0v-3.164A2.243,2.243,0,0,0,261.6,273.228Z" transform="translate(-239.875 -242.686)" fill="#9ea7af"/>
    <path id="Path_634" data-name="Path 634" d="M283.313,273.228a2.243,2.243,0,0,0-2.243,2.243v3.164a2.243,2.243,0,1,0,4.486,0v-3.164A2.243,2.243,0,0,0,283.313,273.228Z" transform="translate(-255.094 -242.686)" fill="#9ea7af"/>
    <path id="Path_635" data-name="Path 635" d="M305.026,273.228a2.243,2.243,0,0,0-2.243,2.243v3.164a2.243,2.243,0,1,0,4.486,0v-3.164A2.243,2.243,0,0,0,305.026,273.228Z" transform="translate(-270.314 -242.686)" fill="#9ea7af"/>
    <path id="Path_636" data-name="Path 636" d="M196.46,307.269a2.243,2.243,0,0,0-2.243,2.243v3.164a2.243,2.243,0,1,0,4.486,0v-3.164A2.243,2.243,0,0,0,196.46,307.269Z" transform="translate(-194.217 -266.546)" fill="#9ea7af"/>
    <path id="Path_637" data-name="Path 637" d="M218.173,307.269a2.243,2.243,0,0,0-2.243,2.243v3.164a2.243,2.243,0,1,0,4.486,0v-3.164A2.243,2.243,0,0,0,218.173,307.269Z" transform="translate(-209.436 -266.546)" fill="#9ea7af"/>
    <path id="Path_638" data-name="Path 638" d="M239.886,307.269a2.243,2.243,0,0,0-2.243,2.243v3.164a2.243,2.243,0,1,0,4.486,0v-3.164A2.243,2.243,0,0,0,239.886,307.269Z" transform="translate(-224.655 -266.546)" fill="#9ea7af"/>
    <path id="Path_639" data-name="Path 639" d="M261.6,307.269a2.243,2.243,0,0,0-2.243,2.243v3.164a2.243,2.243,0,1,0,4.486,0v-3.164A2.243,2.243,0,0,0,261.6,307.269Z" transform="translate(-239.875 -266.546)" fill="#9ea7af"/>
    <path id="Path_640" data-name="Path 640" d="M283.313,307.269a2.243,2.243,0,0,0-2.243,2.243v3.164a2.243,2.243,0,1,0,4.486,0v-3.164A2.243,2.243,0,0,0,283.313,307.269Z" transform="translate(-255.094 -266.546)" fill="#9ea7af"/>
    <path id="Path_641" data-name="Path 641" d="M305.026,307.269a2.243,2.243,0,0,0-2.243,2.243v3.164a2.243,2.243,0,1,0,4.486,0v-3.164A2.243,2.243,0,0,0,305.026,307.269Z" transform="translate(-270.314 -266.546)" fill="#9ea7af"/>
    <path id="Path_642" data-name="Path 642" d="M196.46,341.309a2.243,2.243,0,0,0-2.243,2.243v3.164a2.243,2.243,0,1,0,4.486,0v-3.164A2.243,2.243,0,0,0,196.46,341.309Z" transform="translate(-194.217 -290.406)" fill="#9ea7af"/>
    <path id="Path_643" data-name="Path 643" d="M218.173,341.309a2.243,2.243,0,0,0-2.243,2.243v3.164a2.243,2.243,0,1,0,4.486,0v-3.164A2.243,2.243,0,0,0,218.173,341.309Z" transform="translate(-209.436 -290.406)" fill="#9ea7af"/>
    <path id="Path_644" data-name="Path 644" d="M239.886,341.309a2.243,2.243,0,0,0-2.243,2.243v3.164a2.243,2.243,0,1,0,4.486,0v-3.164A2.243,2.243,0,0,0,239.886,341.309Z" transform="translate(-224.655 -290.406)" fill="#9ea7af"/>
    <path id="Path_645" data-name="Path 645" d="M261.6,341.309a2.243,2.243,0,0,0-2.243,2.243v3.164a2.243,2.243,0,1,0,4.486,0v-3.164A2.243,2.243,0,0,0,261.6,341.309Z" transform="translate(-239.875 -290.406)" fill="#9ea7af"/>
    <path id="Path_646" data-name="Path 646" d="M283.313,341.309a2.243,2.243,0,0,0-2.243,2.243v3.164a2.243,2.243,0,1,0,4.486,0v-3.164A2.243,2.243,0,0,0,283.313,341.309Z" transform="translate(-255.094 -290.406)" fill="#9ea7af"/>
    <path id="Path_647" data-name="Path 647" d="M305.026,341.309a2.243,2.243,0,0,0-2.243,2.243v3.164a2.243,2.243,0,1,0,4.486,0v-3.164A2.243,2.243,0,0,0,305.026,341.309Z" transform="translate(-270.314 -290.406)" fill="#9ea7af"/>
    <path id="Path_648" data-name="Path 648" d="M196.46,375.349a2.243,2.243,0,0,0-2.243,2.243v3.164a2.243,2.243,0,1,0,4.486,0v-3.164A2.243,2.243,0,0,0,196.46,375.349Z" transform="translate(-194.217 -314.266)" fill="#9ea7af"/>
    <path id="Path_649" data-name="Path 649" d="M305.026,375.349a2.243,2.243,0,0,0-2.243,2.243v3.164a2.243,2.243,0,1,0,4.486,0v-3.164A2.243,2.243,0,0,0,305.026,375.349Z" transform="translate(-270.314 -314.266)" fill="#9ea7af"/>
  </g>
  <path id="Path_650" data-name="Path 650" d="M241.086,408.272a1.714,1.714,0,0,1-1.71,1.709H220.6a1.714,1.714,0,0,1-1.71-1.709V378.595a1.714,1.714,0,0,1,1.71-1.709h18.779a1.714,1.714,0,0,1,1.71,1.709Z" transform="translate(-161.181 -264.169)" fill="#7fdee9"/>
  <rect id="Rectangle_402" data-name="Rectangle 402" width="4.486" height="30.488" transform="translate(66.562 112.718)" fill="#9ea7af"/>
  <path id="Path_651" data-name="Path 651" d="M217.389,484.977a1.53,1.53,0,0,1-1.526,1.525h-54.42a1.529,1.529,0,0,1-1.526-1.525v-4.631a1.529,1.529,0,0,1,1.526-1.524h54.42a1.529,1.529,0,0,1,1.526,1.524v4.631Z" transform="translate(-119.848 -335.619)" fill="#c5ccd3"/>
  <path id="Path_652" data-name="Path 652" d="M169.432,484.977v-4.631a1.529,1.529,0,0,1,1.526-1.524h-9.514a1.529,1.529,0,0,0-1.526,1.524v4.631a1.529,1.529,0,0,0,1.526,1.525h9.514A1.53,1.53,0,0,1,169.432,484.977Z" transform="translate(-119.848 -335.619)" opacity="0.1"/>
  <path id="Path_653" data-name="Path 653" d="M161.307,501.486H28.182a2.243,2.243,0,1,1,0-4.486H161.307a2.243,2.243,0,0,1,0,4.486Z" transform="translate(-25.939 -348.36)" fill="#9ea7af"/>
</svg>
