<svg id="svgexport-6" xmlns="http://www.w3.org/2000/svg" width="137.803" height="137.803" viewBox="0 0 137.803 137.803">
  <path id="Path_654" data-name="Path 654" d="M122.954,0H91.067c-7,0-16.361,3.877-21.31,8.827L4.336,74.248a14.879,14.879,0,0,0,0,21l38.221,38.222a14.88,14.88,0,0,0,21,0l65.42-65.421c4.95-4.949,8.827-14.31,8.827-21.31V14.847A14.866,14.866,0,0,0,122.953,0Zm-7.739,28.53a4.038,4.038,0,1,1,1.182-2.853A4.057,4.057,0,0,1,115.215,28.53Zm0,0" transform="translate(0)" fill="#ff4949"/>
  <path id="Path_655" data-name="Path 655" d="M179.2,34.966a4.037,4.037,0,1,1-5.709,5.709L87.554,126.62l18.992,18.993a14.879,14.879,0,0,0,21,0l65.42-65.42c4.95-4.95,8.827-14.31,8.827-21.31V26.993a14.8,14.8,0,0,0-4.241-10.375Zm0,0" transform="translate(-63.989 -12.145)" fill="#ff2323"/>
  <g id="Group_16235" data-name="Group 16235" transform="translate(31.367 25.629)">
    <path id="Path_656" data-name="Path 656" d="M122.67,295.739c-1.468-1.467-1.1-3.607,1.1-5.81,2.569-2.568,4.435-2.11,5.383-3.057,1.1-1.1.183-3-.52-3.7-2.019-2.019-6.452,1.559-8.256,3.363-3.517,3.517-5.871,8.99-1.315,13.547,7.247,7.247,15.657-3.975,20.244.612,1.835,1.835,1.07,4.25-.765,6.085-3.118,3.118-6.3,1.59-7.553,2.843-.947.948-.458,3.028.4,3.885,1.774,1.774,6.851.734,10.856-3.273,4.22-4.219,5.015-9.541.642-13.914-7.92-7.92-16.421,3.212-20.212-.581Zm0,0" transform="translate(-116.542 -232.149)" fill="#fef4f5"/>
    <path id="Path_657" data-name="Path 657" d="M215.35,245.78l-25.137-13.332c-1.192-.642-2.751.061-3.913,1.224-1.131,1.13-1.836,2.69-1.193,3.884l13.332,25.136a2.548,2.548,0,0,0,.245.367c.979.978,3.089.213,4.158-.857.673-.672.98-1.407.552-2.141l-2.906-5.228,7-7,5.228,2.906c.735.427,1.468.122,2.141-.551,1.07-1.07,1.8-3.212.856-4.159A1.864,1.864,0,0,0,215.35,245.78ZM198.2,250.888l-6.728-12.05,12.048,6.729Zm0,0" transform="translate(-166.475 -195.337)" fill="#fef4f5"/>
    <path id="Path_658" data-name="Path 658" d="M262.936,197.672l-7.461,7.461L237.83,187.489c-.857-.856-2.232-.213-3.211.764-1.009,1.009-1.621,2.355-.765,3.212l19.877,19.877c.825.825,2.11.4,3-.49l9.693-9.693c.795-.795.3-2.08-.551-2.935-.886-.887-2.14-1.347-2.935-.551Zm0,0" transform="translate(-201.983 -162.364)" fill="#fef4f5"/>
    <path id="Path_659" data-name="Path 659" d="M322.131,115.061c-.948-.948-2.233-1.315-3.028-.52l-8.654,8.654-6.146-6.146,4.648-4.648a1.958,1.958,0,0,0-.275-2.783,2,2,0,0,0-2.844-.335l-4.648,4.647-6.116-6.116,8.654-8.653c.795-.8.428-2.08-.519-3.028-.826-.825-2.11-1.315-2.967-.459L289.35,106.56c-.887.886-1.315,2.171-.489,3L308.707,129.4c.826.826,2.11.4,3-.489l10.886-10.886c.856-.856.367-2.141-.458-2.966Zm0,0" transform="translate(-242.159 -95.225)" fill="#fef4f5"/>
  </g>
  <path id="Path_660" data-name="Path 660" d="M169.047,330.106c1.835,1.835,1.07,4.25-.764,6.085-3.119,3.118-6.3,1.59-7.553,2.843-.948.948-.458,3.028.4,3.885,1.774,1.774,6.85.734,10.855-3.273,4.22-4.219,5.015-9.541.642-13.914a8.979,8.979,0,0,0-6.554-2.916l-8.832,8.833c4.615-1.128,8.953-4.4,11.809-1.543Zm0,0" transform="translate(-114.918 -235.931)" fill="#d5eded"/>
  <path id="Path_661" data-name="Path 661" d="M223.18,265.228l-5.32,5.321-2.232-4-3.858,3.858,6.334,11.943a2.549,2.549,0,0,0,.245.367c.979.978,3.089.213,4.158-.857.673-.672.98-1.407.552-2.141l-2.906-5.229,7-7,5.228,2.9c.735.428,1.468.123,2.141-.551,1.07-1.07,1.8-3.211.856-4.158a1.9,1.9,0,0,0-.366-.245l-11.943-6.335-3.889,3.889Zm0,0" transform="translate(-154.772 -189.368)" fill="#d5eded"/>
  <path id="Path_662" data-name="Path 662" d="M282.085,238.965c.825.826,2.11.4,3-.489l9.693-9.695c.795-.794.306-2.079-.55-2.934-.887-.887-2.141-1.347-2.936-.551l-7.461,7.461-7.61-7.61-3.975,3.975Zm0,0" transform="translate(-198.969 -164.359)" fill="#d5eded"/>
  <path id="Path_663" data-name="Path 663" d="M347.466,153.805l-8.654,8.654-6.146-6.146,4.648-4.648a1.93,1.93,0,0,0-.213-2.716l-9.874,9.874,9.843,9.843c.825.826,2.11.4,3-.489l10.885-10.886c.857-.856.367-2.141-.457-2.966-.948-.948-2.233-1.315-3.028-.52Zm0,0" transform="translate(-239.155 -108.86)" fill="#d5eded"/>
</svg>
