<svg id="svgexport-6_1_" data-name="svgexport-6 (1)" xmlns="http://www.w3.org/2000/svg" width="127.468" height="125.18" viewBox="0 0 127.468 125.18">
  <g id="Group_16238" data-name="Group 16238" transform="translate(0 0)">
    <path id="Path_664" data-name="Path 664" d="M38.122,6.293l-3.275,6.2a.808.808,0,0,1-.578.42l-6.91,1.2a5.206,5.206,0,0,0-2.846,8.756L29.4,27.9a.809.809,0,0,1,.222.679l-1,6.94a5.207,5.207,0,0,0,7.448,5.413l6.294-3.092a.82.82,0,0,1,.716,0l6.294,3.092a5.207,5.207,0,0,0,7.448-5.413l-1-6.94a.809.809,0,0,1,.222-.679l4.885-5.033a5.206,5.206,0,0,0-2.846-8.756l-6.91-1.2a.808.808,0,0,1-.578-.42l-3.275-6.2a5.208,5.208,0,0,0-9.208,0Z" transform="translate(21.008 -3.52)" fill="#ffb43f"/>
    <path id="Path_665" data-name="Path 665" d="M72.718,15.779l-6.7,2.068a.812.812,0,0,1-.705-.11L59.578,13.7a5.206,5.206,0,0,0-8.2,4.18l-.1,7.013a.806.806,0,0,1-.325.635l-5.611,4.206a5.208,5.208,0,0,0,1.439,9.094l6.637,2.264a.813.813,0,0,1,.505.505l2.266,6.637a5.2,5.2,0,0,0,9.092,1.439l4.206-5.611a.807.807,0,0,1,.637-.325l7.011-.1a5.206,5.206,0,0,0,4.18-8.2L77.272,29.7a.811.811,0,0,1-.112-.708l2.068-6.7a5.208,5.208,0,0,0-6.51-6.512Z" transform="translate(45.209 7.534)" fill="#ffb43f"/>
    <path id="Path_666" data-name="Path 666" d="M6.031,22.291,8.1,28.99a.811.811,0,0,1-.112.708L3.95,35.429a5.206,5.206,0,0,0,4.18,8.2l7.011.1a.807.807,0,0,1,.637.325l4.206,5.611a5.2,5.2,0,0,0,9.092-1.439L31.342,41.6a.813.813,0,0,1,.505-.505l6.637-2.264a5.208,5.208,0,0,0,1.439-9.094l-5.611-4.2a.813.813,0,0,1-.325-.637l-.1-7.013a5.206,5.206,0,0,0-8.2-4.18l-5.734,4.037a.806.806,0,0,1-.705.112l-6.7-2.068a5.208,5.208,0,0,0-6.51,6.512Z" transform="translate(-3 7.534)" fill="#ffb43f"/>
  </g>
  <circle id="Ellipse_24" data-name="Ellipse 24" cx="41.022" cy="41.022" r="41.022" transform="translate(22.712 43.136)" fill="#ffc45c"/>
  <path id="Path_667" data-name="Path 667" d="M59.962,43.464l-31.6.057a6.536,6.536,0,0,0-6.03,9.026,23.6,23.6,0,0,0,43.73.024,6.594,6.594,0,0,0-6.1-9.107Z" transform="translate(19.564 44.321)" fill="#354e5b"/>
  <path id="Path_668" data-name="Path 668" d="M22.443,52.817a6.3,6.3,0,0,1,.5-.894,6.532,6.532,0,0,1,5.417-2.9l31.6-.057a6.6,6.6,0,0,1,5.481,2.925,6.787,6.787,0,0,1,.516.921c.033-.079.068-.16.1-.242a6.594,6.594,0,0,0-6.1-9.107l-31.6.057a6.536,6.536,0,0,0-6.03,9.026c.037.09.073.18.112.27Z" transform="translate(19.564 44.321)" fill="#2a3f4a"/>
  <path id="Path_669" data-name="Path 669" d="M24.451,42.166A3.384,3.384,0,0,1,26.1,40.058a6.251,6.251,0,0,1,1.565-.7,6.415,6.415,0,0,1,2.505-.336,6.4,6.4,0,0,1,2.1.209,6.906,6.906,0,0,1,1.363.464,3.659,3.659,0,0,1,2.259,2.468,1.107,1.107,0,1,0,2.213,0,6.224,6.224,0,0,0-2.4-5.435,8.8,8.8,0,0,0-3.721-1.883,8.658,8.658,0,0,0-1.807-.215A9.1,9.1,0,0,0,27.778,35a8.535,8.535,0,0,0-3.151,1.71,6.219,6.219,0,0,0-2.389,5.459,1.107,1.107,0,1,0,2.213,0Z" transform="translate(19.976 33.743)" fill="#354e5b"/>
  <path id="Path_670" data-name="Path 670" d="M36.817,42.166a3.387,3.387,0,0,1,1.65-2.108,6.235,6.235,0,0,1,1.563-.7,6.426,6.426,0,0,1,2.505-.336,6.4,6.4,0,0,1,2.1.209,6.857,6.857,0,0,1,1.363.464,3.654,3.654,0,0,1,2.259,2.468,1.107,1.107,0,1,0,2.213,0,6.219,6.219,0,0,0-2.4-5.435,8.8,8.8,0,0,0-3.721-1.883,8.64,8.64,0,0,0-1.807-.215A9.109,9.109,0,0,0,40.144,35a8.534,8.534,0,0,0-3.151,1.71A6.224,6.224,0,0,0,34.6,42.166a1.107,1.107,0,1,0,2.213,0Z" transform="translate(34.787 33.743)" fill="#354e5b"/>
  <path id="Path_671" data-name="Path 671" d="M25.882,55.988a2.2,2.2,0,0,0,.844,2.661,23.559,23.559,0,0,0,25.581.007,2.2,2.2,0,0,0,.846-2.664c-1.954-4.879-7.292-8.483-13.637-8.483s-11.679,3.6-13.634,8.479Z" transform="translate(24.217 49.165)" fill="#e40c5b"/>
</svg>
