<svg xmlns="http://www.w3.org/2000/svg" xmlns:xlink="http://www.w3.org/1999/xlink" width="730.217" height="700.324" viewBox="0 0 730.217 700.324">
  <defs>
    <filter id="Union_1" x="0" y="0" width="730.217" height="700.324" filterUnits="userSpaceOnUse">
      <feOffset dy="20" input="SourceAlpha"/>
      <feGaussianBlur stdDeviation="49.5" result="blur"/>
      <feFlood flood-color="#787878" flood-opacity="0.149"/>
      <feComposite operator="in" in2="blur"/>
      <feComposite in="SourceGraphic"/>
    </filter>
  </defs>
  <g transform="matrix(1, 0, 0, 1, 0, 0)" filter="url(#Union_1)">
    <g id="Union_1-2" data-name="Union 1" transform="translate(148.5 128.5)" fill="#fff">
      <path d="M 217.5124664306641 402.3324890136719 L 192.5248413085938 362.7391662597656 L 192.3776702880859 362.5060119628906 L 192.1020050048828 362.5060119628906 L 19.99978637695312 362.5060119628906 C 17.3670654296875 362.5060119628906 14.81339836120605 361.9905090332031 12.4097318649292 360.9738464355469 C 10.08773136138916 359.9917297363281 8.002286911010742 358.5856628417969 6.211342811584473 356.7947082519531 C 4.420342922210693 355.0037231445312 3.014287233352661 352.9182739257812 2.03217625617981 350.5963439941406 C 1.015509605407715 348.1925964355469 0.5000095367431641 345.6389465332031 0.5000095367431641 343.0062255859375 L 0.5000095367431641 19.99983215332031 C 0.5000095367431641 17.36710929870605 1.015509605407715 14.81344318389893 2.03217625617981 12.4097204208374 C 3.014287233352661 10.08772087097168 4.420342922210693 8.002331733703613 6.211342811584473 6.211331367492676 C 8.002286911010742 4.420331478118896 10.08773136138916 3.014276027679443 12.4097318649292 2.032164812088013 C 14.81339836120605 1.015498280525208 17.3670654296875 0.4999982714653015 19.99978637695312 0.4999982714653015 L 413.2170104980469 0.4999982714653015 C 415.8497314453125 0.4999982714653015 418.4034118652344 1.015498280525208 420.8070678710938 2.032164812088013 C 423.1290588378906 3.014276027679443 425.2145080566406 4.420331478118896 427.0054626464844 6.211331367492676 C 428.7964477539062 8.002331733703613 430.2025146484375 10.08772087097168 431.1846313476562 12.4097204208374 C 432.2012939453125 14.81344318389893 432.716796875 17.36710929870605 432.716796875 19.99983215332031 L 432.716796875 343.0062255859375 C 432.716796875 345.6389465332031 432.2012939453125 348.1925964355469 431.1846313476562 350.5963439941406 C 430.2025146484375 352.9182739257812 428.7964477539062 355.0037231445312 427.0054626464844 356.7947082519531 C 425.2145080566406 358.5856628417969 423.1290588378906 359.9917297363281 420.8070678710938 360.9738464355469 C 418.4034118652344 361.9905090332031 415.8497314453125 362.5060119628906 413.2170104980469 362.5060119628906 L 239.2164611816406 362.5060119628906 L 238.9175720214844 362.5060119628906 L 238.7760162353516 362.769287109375 L 217.5124664306641 402.3324890136719 Z" stroke="none"/>
      <path d="M 217.4778747558594 401.3407897949219 L 238.6186218261719 362.0060119628906 L 413.2170104980469 362.0060119628906 C 415.7824401855469 362.0060119628906 418.2705688476562 361.5037841796875 420.6123352050781 360.5133361816406 C 422.8746643066406 359.5564575195312 424.9066772460938 358.1864013671875 426.6518859863281 356.441162109375 C 428.3971252441406 354.6959533691406 429.7672424316406 352.6639404296875 430.72412109375 350.4015502929688 C 431.7145690917969 348.0597839355469 432.216796875 345.5716552734375 432.216796875 343.0062255859375 L 432.216796875 19.99983215332031 C 432.216796875 17.43438720703125 431.7145690917969 14.94622039794922 430.72412109375 12.6044979095459 C 429.7672424316406 10.34210968017578 428.3971252441406 8.31010913848877 426.6518859863281 6.564887046813965 C 424.9066772460938 4.81966495513916 422.8746643066406 3.449553728103638 420.6123352050781 2.492664813995361 C 418.2705688476562 1.502220511436462 415.7824401855469 0.9999982714653015 413.2170104980469 0.9999982714653015 L 19.99978637695312 0.9999982714653015 C 17.4343433380127 0.9999982714653015 14.94623184204102 1.502220511436462 12.60445404052734 2.492664813995361 C 10.34212112426758 3.449553728103638 8.310120582580566 4.81966495513916 6.564898490905762 6.564887046813965 C 4.819676399230957 8.31010913848877 3.449565172195435 10.34210968017578 2.492676258087158 12.6044979095459 C 1.50223171710968 14.94622039794922 1.000009536743164 17.43438720703125 1.000009536743164 19.99983215332031 L 1.000009536743164 343.0062255859375 C 1.000009536743164 345.5716552734375 1.50223171710968 348.0597839355469 2.492676258087158 350.4015502929688 C 3.449565172195435 352.6639404296875 4.819676399230957 354.6959533691406 6.564898490905762 356.441162109375 C 8.310120582580566 358.1864013671875 10.34212112426758 359.5564575195312 12.60445404052734 360.5133361816406 C 14.94623184204102 361.5037841796875 17.4343433380127 362.0060119628906 19.99978637695312 362.0060119628906 L 192.6533966064453 362.0060119628906 L 217.4778747558594 401.3407897949219 M 217.547119140625 403.32421875 L 192.1020050048828 363.0060119628906 L 19.99978637695312 363.0060119628906 C 8.954120635986328 363.0060119628906 9.548611160425935e-06 354.0519409179688 9.548611160425935e-06 343.0062255859375 L 9.548611160425935e-06 19.99983215332031 C 9.548611160425935e-06 8.954109191894531 8.954120635986328 -1.73611113041261e-06 19.99978637695312 -1.73611113041261e-06 L 413.2170104980469 -1.73611113041261e-06 C 424.2626647949219 -1.73611113041261e-06 433.216796875 8.954109191894531 433.216796875 19.99983215332031 L 433.216796875 343.0062255859375 C 433.216796875 354.0519409179688 424.2626647949219 363.0060119628906 413.2170104980469 363.0060119628906 L 239.2164611816406 363.0060119628906 L 217.547119140625 403.32421875 Z" stroke="none" fill="#ebebeb"/>
    </g>
  </g>
</svg>
